<?xml version="1.0" encoding="UTF-8"?>
<svg version="1.1" xmlns="http://www.w3.org/2000/svg" width="333" height="329">
<path d="M0 0 C1.36920921 -0.00542725 2.73841257 -0.01255329 4.10760498 -0.02124023 C7.81510603 -0.03942593 11.52216008 -0.03242054 15.22966862 -0.01972389 C19.13121241 -0.00954681 23.03271972 -0.01900484 26.93426514 -0.02526855 C33.49791258 -0.03254169 40.06137994 -0.02297695 46.625 -0.00390625 C54.16561076 0.01775308 61.70578697 0.01089012 69.24638677 -0.01121187 C75.75296539 -0.0295065 82.25941489 -0.0318531 88.766011 -0.0214572 C92.63706081 -0.01528463 96.50790835 -0.01420888 100.3789444 -0.02760315 C137.98237428 -0.13992813 169.33670825 7.51679026 197.15527344 34.08007812 C214.5804862 52.44148083 224.17958349 76.22408627 223.87866211 101.45092773 C223.65722018 108.08830649 222.7597329 114.25030192 220.47167969 120.51757812 C220.21644531 121.2265625 219.96121094 121.93554688 219.69824219 122.66601562 C216.37622703 130.37674806 209.92465011 137.67289055 202.47167969 141.51757812 C201.81167969 141.51757812 201.15167969 141.51757812 200.47167969 141.51757812 C200.14167969 143.16757813 199.81167969 144.81757813 199.47167969 146.51757812 C200.13167969 146.70320312 200.79167969 146.88882813 201.47167969 147.08007812 C210.71226089 151.50785662 216.7354932 159.88087049 220.57324219 169.18945312 C226.03527617 187.26010761 222.86361932 207.89647248 214.28417969 224.39257812 C210.43300614 231.42356122 205.9122581 237.61459974 200.47167969 243.51757812 C199.87226563 244.20851562 199.27285156 244.89945313 198.65527344 245.61132812 C183.02639561 262.62418865 159.09045417 271.71169876 136.47167969 273.51757812 C129.56068005 273.78374032 122.64167199 273.67460672 115.72747421 273.60858154 C111.0766523 273.56946095 106.42603519 273.56782525 101.7750721 273.56378174 C93.14832791 273.55608898 84.52232916 273.53423173 75.89599609 273.44580078 C69.8623341 273.38539406 63.83026754 273.37404696 57.79636002 273.39450073 C55.51192258 273.39323043 53.22741764 273.37412824 50.94329453 273.33621216 C36.04834034 272.71101794 36.04834034 272.71101794 23.30419922 279.32226562 C21.66191095 281.02424226 20.04847232 282.75475079 18.47167969 284.51757812 C16.76745777 285.96415667 15.04157532 287.38608531 13.28417969 288.76757812 C12.48238281 289.404375 11.68058594 290.04117187 10.85449219 290.69726562 C-2.8900868 301.19722269 -2.8900868 301.19722269 -10.02832031 300.33007812 C-15.27088297 299.57368849 -18.25449848 297.96831966 -21.77832031 293.95507812 C-24.16383211 290.63240098 -24.65392562 288.99669 -24.66254139 284.96781731 C-24.66699923 284.00386823 -24.67145708 283.03991915 -24.67605001 282.04675949 C-24.67586564 280.98024945 -24.67568128 279.91373941 -24.67549133 278.81491089 C-24.67916802 277.68770256 -24.68284471 276.56049423 -24.68663281 275.39912808 C-24.69770641 271.59599624 -24.70151972 267.79289168 -24.70532227 263.98974609 C-24.71104994 261.2733995 -24.71821765 258.55705703 -24.72523499 255.8407135 C-24.74501221 247.6693981 -24.75506808 239.49808143 -24.76396278 231.32674807 C-24.7683444 227.47946987 -24.77371161 223.63219304 -24.77895164 219.78491592 C-24.79596665 206.99623589 -24.81046033 194.20755673 -24.81770039 181.41886711 C-24.81961031 178.09890619 -24.82153064 174.77894527 -24.82348633 171.45898438 C-24.82397007 170.63381357 -24.82445381 169.80864276 -24.82495221 168.95846678 C-24.83325058 155.59441212 -24.85858301 142.23044702 -24.89106701 128.86643146 C-24.92414076 115.14797716 -24.94214951 101.42956837 -24.94534463 87.71107399 C-24.94750964 80.00784576 -24.95625679 72.30474807 -24.9818058 64.60155869 C-25.00351732 58.04017252 -25.01156113 51.47894859 -25.00183902 44.91753058 C-24.99729518 41.57058305 -25.00136762 38.22424146 -25.01860046 34.87729454 C-25.03625489 31.24529571 -25.02924374 27.61414621 -25.0160675 23.98214722 C-25.02703675 22.92902151 -25.038006 21.8758958 -25.04930764 20.7908572 C-24.9948383 14.57263103 -24.22222278 9.65616276 -20.52832031 4.51757812 C-14.39940681 -0.68955771 -7.74945957 -0.04929869 0 0 Z M39.03417969 57.33007812 C38.1584262 60.73578612 38.58031203 63.13038105 39.47167969 66.51757812 C42.04264997 69.74419849 43.52217212 71.32875492 47.61843872 72.14335632 C48.799935 72.14398575 49.98143127 72.14461517 51.19873047 72.14526367 C52.18281639 72.15617035 52.18281639 72.15617035 53.18678284 72.16729736 C55.34740744 72.18583788 57.5063676 72.16983543 59.66699219 72.15429688 C61.18050603 72.16234572 62.69400854 72.17286886 64.20748901 72.18574524 C68.19167559 72.21428069 72.17534223 72.21487656 76.15960693 72.20788574 C82.51389425 72.20056532 88.86801209 72.2322512 95.22216415 72.27033424 C97.42607762 72.27908479 99.62961491 72.2739215 101.83352661 72.26676941 C123.89636636 72.27476963 123.89636636 72.27476963 132.47167969 79.51757812 C134.96638729 83.25963953 135.07115399 86.18986639 134.47167969 90.51757812 C133.28417969 93.76757812 133.28417969 93.76757812 130.47167969 96.51757812 C121.70621817 100.39098781 112.94987447 101.07969191 103.50206184 101.00343323 C101.26003 100.98586337 99.01925251 100.99383691 96.77720642 101.00769043 C92.02944013 101.03275695 87.28198492 101.02756312 82.53417969 101.01757812 C77.00098632 101.00600707 71.4684159 101.0072534 65.93530083 101.04164124 C63.73588732 101.04869487 61.53748352 101.03212514 59.33815002 101.01452637 C57.98560044 101.02023475 56.63305493 101.02705229 55.28051758 101.03515625 C54.10727432 101.03197388 52.93403107 101.0287915 51.72523499 101.0255127 C47.00270432 101.73974493 43.9794414 104.06007514 40.59667969 107.33007812 C38.96258183 110.50749063 39.15745993 112.99831684 39.47167969 116.51757812 C40.30297782 119.08074736 40.87915922 120.12689367 43.1222229 121.60588074 C46.26983927 122.82730078 48.93690276 122.77956905 52.31298828 122.79223633 C52.99334137 122.79734726 53.67369446 122.80245819 54.37466431 122.807724 C56.62323841 122.82161502 58.87150525 122.82066162 61.12011719 122.81835938 C62.69512036 122.82225064 64.2701225 122.8265862 65.84512329 122.8313446 C69.15215444 122.83880874 72.45907889 122.83851713 75.76611328 122.83325195 C79.96631121 122.82750047 84.16606192 122.84428148 88.36618614 122.86759663 C91.62483194 122.88247761 94.88337411 122.88318564 98.14204788 122.8800869 C99.68791199 122.88059438 101.2337828 122.88572221 102.77961349 122.89589882 C118.65982188 122.98750021 133.9818538 121.08469319 146.97167969 111.01757812 C153.22769262 104.76156519 155.91451165 97.71781312 156.84667969 89.01757812 C155.71171283 78.42455416 151.35105755 69.50150593 143.59667969 62.18164062 C130.76086569 52.13006569 114.90330692 51.04174561 99.22167969 51.08398438 C97.70906341 51.0794085 96.19644919 51.07409883 94.68383789 51.06809998 C91.54418372 51.0592516 88.40478517 51.06150228 85.26513672 51.0715332 C81.25261222 51.08310848 77.2409567 51.06264051 73.22854614 51.03361607 C70.11776198 51.01525102 67.00718707 51.01554543 63.8963623 51.02125359 C62.41645066 51.02140625 60.93652436 51.01540713 59.45666504 51.00296211 C57.39210251 50.9880182 55.32916147 50.99874479 53.26464844 51.01586914 C52.09442139 51.01603531 50.92419434 51.01620148 49.71850586 51.01637268 C45.18476123 51.71623691 41.89254798 53.72604854 39.03417969 57.33007812 Z M41.47167969 152.51757812 C38.64799398 156.75310668 38.80514212 160.54235127 39.47167969 165.51757812 C41.26814823 168.45181008 42.41578679 169.98963168 45.47167969 171.51757812 C48.52688143 171.6268328 51.55963433 171.67492097 54.61547852 171.67871094 C55.56358902 171.68367584 56.51169952 171.68864075 57.48854065 171.6937561 C60.63527138 171.70839989 63.78195169 171.71518365 66.92871094 171.72070312 C69.11105857 171.72645303 71.29340619 171.73221079 73.47575378 171.73797607 C78.05651078 171.74849257 82.6372502 171.7543309 87.21801758 171.7578125 C93.08938234 171.76329662 98.96051513 171.78732032 104.83180714 171.81578445 C109.34165629 171.83440367 113.8514495 171.83961607 118.36133385 171.84114838 C120.52588862 171.84417737 122.69044235 171.85221417 124.85495949 171.86533356 C127.88338507 171.8823778 130.91124325 171.88051756 133.93969727 171.87402344 C135.28257812 171.88784561 135.28257812 171.88784561 136.65258789 171.90194702 C141.3938081 171.87007937 144.6700876 171.67864139 148.47167969 168.51757812 C150.63183603 164.77330714 151.45957953 162.21938736 151.53417969 157.89257812 C150.22225986 153.72530338 148.23363642 151.58812333 144.47167969 149.51757812 C141.29837531 148.82160725 138.22017611 148.85330846 134.98144531 148.90234375 C134.04411057 148.89679474 133.10677582 148.89124573 132.14103699 148.88552856 C129.05280912 148.87374957 125.96605422 148.89799036 122.87792969 148.92382812 C120.72611559 148.92553976 118.57429941 148.92547301 116.42248535 148.92370605 C111.91670737 148.92535832 107.4114275 148.94403966 102.90576172 148.97558594 C97.13542175 149.01526281 91.365734 149.01963047 85.59528351 149.01212311 C81.15311732 149.00905093 76.71109725 149.02118286 72.26896667 149.03825378 C70.14154477 149.04527605 68.0141063 149.04840926 65.88667297 149.04756165 C62.91144991 149.04936297 59.93700266 149.07077403 56.96191406 149.09765625 C56.08589035 149.09472565 55.20986664 149.09179504 54.30729675 149.08877563 C49.30657331 149.15835231 45.77739026 149.69242913 41.47167969 152.51757812 Z M41.47167969 202.51757812 C39.44786469 205.55330063 39.13393715 206.47530299 39.03417969 209.95507812 C38.99421875 210.71691406 38.95425781 211.47875 38.91308594 212.26367188 C39.75826958 215.67395833 41.58006117 216.62258949 44.47167969 218.51757812 C47.67168918 219.11248084 47.67168918 219.11248084 51.1862793 219.01928711 C51.84061447 219.02469009 52.49494965 219.03009308 53.16911316 219.03565979 C55.32121735 219.04811519 57.47197503 219.03167779 59.62402344 219.01367188 C61.12708099 219.01382696 62.63013895 219.01531749 64.13319397 219.01808167 C67.27965019 219.01946428 70.42564983 219.0069328 73.57202148 218.98413086 C77.59480058 218.95577065 81.61682002 218.95847851 85.63965511 218.97122097 C88.74274624 218.97819431 91.84566346 218.97036969 94.94873238 218.95796394 C96.43141575 218.95346375 97.9141179 218.95310008 99.3968029 218.95702934 C101.47414929 218.95995735 103.55046927 218.94336036 105.62768555 218.92163086 C107.39709755 218.91352638 107.39709755 218.91352638 109.20225525 218.90525818 C112.90726714 218.46592727 115.30501833 217.46911087 118.47167969 215.51757812 C120.48639565 212.49550418 120.80887003 211.60031114 120.90917969 208.14257812 C120.94914062 207.39234375 120.98910156 206.64210937 121.03027344 205.86914062 C120.17881698 202.28468755 118.27148066 200.83959655 115.47167969 198.51757812 C112.27953198 197.77311852 112.27953198 197.77311852 108.75708008 197.88647461 C108.1027449 197.87931931 107.44840973 197.872164 106.77424622 197.86479187 C104.62188827 197.84795144 102.47162763 197.86727782 100.31933594 197.88867188 C98.81627735 197.88784262 97.31321885 197.88538112 95.81016541 197.88136292 C92.66361109 197.87850802 89.51776979 197.89317278 86.37133789 197.9206543 C82.34838797 197.95470833 78.32671498 197.94872637 74.30370426 197.92999172 C71.20057128 197.91939524 68.09773265 197.92838381 64.994627 197.94337654 C63.51194573 197.94854145 62.0292335 197.94809714 60.54655647 197.94183159 C58.46892963 197.93634796 56.39309599 197.95685069 54.31567383 197.98413086 C52.54626183 197.99342873 52.54626183 197.99342873 50.74110413 198.00291443 C46.76222471 198.62925855 44.59927018 200.01972735 41.47167969 202.51757812 Z " fill="#6C56FB" transform="translate(72.5283203125,11.482421875)"/>
<path d="M0 0 C0.33 0 0.66 0 1 0 C3.46027635 12.18233612 3.2709054 26.30143302 -1 38 C-1.25523437 38.70898438 -1.51046875 39.41796875 -1.7734375 40.1484375 C-5.09545266 47.85916994 -11.54702958 55.15531242 -19 59 C-19.66 59 -20.32 59 -21 59 C-21.33 60.65 -21.66 62.3 -22 64 C-21.01 64.2784375 -21.01 64.2784375 -20 64.5625 C-10.7594188 68.99027849 -4.73618648 77.36329236 -0.8984375 86.671875 C4.56359648 104.74252948 1.39193963 125.37889435 -7.1875 141.875 C-11.03867355 148.90598309 -15.55942159 155.09702161 -21 161 C-21.59941406 161.6909375 -22.19882812 162.381875 -22.81640625 163.09375 C-38.44528408 180.10661053 -62.38122552 189.19412063 -85 191 C-91.91099964 191.2661622 -98.83000769 191.1570286 -105.74420547 191.09100342 C-110.39502739 191.05188282 -115.0456445 191.05024712 -119.69660759 191.04620361 C-128.32335178 191.03851085 -136.94935053 191.01665361 -145.57568359 190.92822266 C-151.60934559 190.86781594 -157.64141215 190.85646884 -163.67531967 190.87692261 C-165.95975711 190.8756523 -168.24426205 190.85655011 -170.52838516 190.81863403 C-185.42333935 190.19343981 -185.42333935 190.19343981 -198.16748047 196.8046875 C-199.80976874 198.50666413 -201.42320737 200.23717266 -203 202 C-204.70422191 203.44657854 -206.43010436 204.86850719 -208.1875 206.25 C-208.98929688 206.88679687 -209.79109375 207.52359375 -210.6171875 208.1796875 C-224.36176649 218.67964456 -224.36176649 218.67964456 -231.5 217.8125 C-236.74256266 217.05611036 -239.72617816 215.45074154 -243.25 211.4375 C-246.13844629 207.41430695 -246.1238457 205.15476068 -246.12025452 200.19174194 C-246.12110894 199.48357854 -246.12196337 198.77541513 -246.12284368 198.04579222 C-246.12449724 195.66119943 -246.11897913 193.27667621 -246.11352539 190.89208984 C-246.11324347 189.18738303 -246.11340136 187.4826761 -246.1139679 185.77796936 C-246.11425567 181.1397954 -246.10836223 176.50164712 -246.10139394 171.86347914 C-246.09515701 167.02012225 -246.09455633 162.17676482 -246.09336853 157.33340454 C-246.09025622 148.15718832 -246.08204417 138.98098396 -246.07201904 129.80477297 C-246.0608548 119.35994507 -246.05534667 108.91511661 -246.05032361 98.47028422 C-246.03986149 76.98018285 -246.02226397 55.49009217 -246 34 C-245.01 34.33 -244.02 34.66 -243 35 C-242.86925892 54.9236678 -242.73885458 74.84733778 -242.60884857 94.7710104 C-242.54847363 104.02239014 -242.48798946 113.27376915 -242.42724609 122.52514648 C-242.37428828 130.59080571 -242.32153751 138.65646626 -242.26903296 146.72212845 C-242.24123802 150.9908391 -242.21334104 155.25954902 -242.18519592 159.52825737 C-242.15867644 163.55090614 -242.13243503 167.57355663 -242.10640144 171.59620857 C-242.09682888 173.06791881 -242.08715712 174.53962841 -242.07737541 176.01133728 C-241.99401188 188.56813674 -241.99401188 188.56813674 -242.0177002 194.2716217 C-241.99438393 199.18297143 -241.36664296 202.71045964 -239 207 C-238.67 207.66 -238.34 208.32 -238 209 C-236.11736119 209.90343684 -236.11736119 209.90343684 -233.9375 210.625 C-233.20402344 210.88539063 -232.47054687 211.14578125 -231.71484375 211.4140625 C-230.86599609 211.70410156 -230.86599609 211.70410156 -230 212 C-229.67 211.34 -229.34 210.68 -229 210 C-228.13375 210.20625 -227.2675 210.4125 -226.375 210.625 C-220.52320408 211.27519955 -216.70156938 209.07555729 -212.14453125 205.51367188 C-211.60183594 205.07603516 -211.05914062 204.63839844 -210.5 204.1875 C-209.95730469 203.76146484 -209.41460937 203.33542969 -208.85546875 202.89648438 C-207.76863951 202.03921215 -206.68796567 201.17407528 -205.61376953 200.30102539 C-204.52026162 199.41943634 -203.41107815 198.55700643 -202.28857422 197.71264648 C-199.07860611 195.24977396 -199.07860611 195.24977396 -197.1953125 191.76171875 C-197.17210937 191.07722656 -197.14890625 190.39273438 -197.125 189.6875 C-197.08375 188.470625 -197.0425 187.25375 -197 186 C-192.20868514 185.89805713 -187.66573687 186.2169971 -182.91796875 186.87890625 C-180.91454577 187.16672441 -180.91454577 187.16672441 -179 186 C-179 186.66 -179 187.32 -179 188 C-173.76650413 187.43287369 -173.76650413 187.43287369 -168.625 186.375 C-167 186 -167 186 -165 187 C-162.60348437 187.10839401 -160.23559442 187.15730513 -157.83837891 187.16113281 C-157.09968063 187.16609772 -156.36098236 187.17106262 -155.59989929 187.17617798 C-153.14211091 187.19084014 -150.68438756 187.19761631 -148.2265625 187.203125 C-146.95939959 187.20736607 -146.95939959 187.20736607 -145.66663742 187.21169281 C-141.17619258 187.22671954 -136.68578001 187.23592062 -132.1953125 187.24023438 C-127.61006318 187.24565441 -123.02512068 187.26953208 -118.4399662 187.29820633 C-114.87398516 187.31710001 -111.30807316 187.32205274 -107.74204636 187.32357025 C-106.0559971 187.32654914 -104.36994759 187.33441053 -102.68394852 187.34775543 C-90.87224207 187.43439564 -79.61881353 186.33900849 -67.98592186 184.27018356 C-66 184 -66 184 -62 184 C-61.9175 183.38125 -61.835 182.7625 -61.75 182.125 C-61 180 -61 180 -59.125 178.6875 C-57 178 -57 178 -54 179 C-41.20042145 177.37433006 -27.94516897 165.5315366 -20 156 C-6.48205283 138.15343358 0.37114434 117.70494835 -2.6875 95.1875 C-4.26202264 86.5165373 -6.91043378 77.67165298 -14 72 C-14.845625 71.278125 -15.69125 70.55625 -16.5625 69.8125 C-18.85104618 67.94340154 -18.85104618 67.94340154 -21.25 67.125 C-23 66 -23 66 -23.9375 63.0625 C-24 60 -24 60 -22.7421875 58.48046875 C-20.95173482 56.95898542 -19.11017731 55.6000456 -17.1875 54.25 C-9.30784008 48.33664053 -5.81978346 42.44265949 -3 33 C-2.82509033 32.41581299 -2.65018066 31.83162598 -2.4699707 31.22973633 C-1.87186426 28.39207082 -1.7987707 25.67248525 -1.71875 22.7734375 C-1.68136719 21.5771875 -1.64398438 20.3809375 -1.60546875 19.1484375 C-1.53493806 16.62500609 -1.4646269 14.10156853 -1.39453125 11.578125 C-1.35714844 10.38445312 -1.31976563 9.19078125 -1.28125 7.9609375 C-1.25095703 6.86571777 -1.22066406 5.77049805 -1.18945312 4.64208984 C-1 2 -1 2 0 0 Z " fill="#3858CB" transform="translate(294,94)"/>
<path d="M0 0 C1.04019791 -0.0076664 1.04019791 -0.0076664 2.10140991 -0.01548767 C4.38662438 -0.02934769 6.67153566 -0.02842836 8.95678711 -0.02612305 C10.55757253 -0.03001454 12.15835693 -0.03435014 13.75914001 -0.03910828 C17.1156651 -0.0465647 20.47208503 -0.04628531 23.82861328 -0.04101562 C28.0995991 -0.03524949 32.37014721 -0.05208507 36.64106083 -0.0753603 C39.95023558 -0.09020696 43.25930789 -0.09095414 46.56851006 -0.08785057 C48.14114683 -0.08835923 49.71379004 -0.0935101 51.28639412 -0.10366249 C66.51027491 -0.18981943 81.24499108 1.6140371 92.73413086 12.6496582 C102.54508841 23.30964093 102.54508841 23.30964093 103.92163086 29.2746582 C103.54663086 33.0871582 103.54663086 33.0871582 102.92163086 36.2746582 C102.59163086 36.2746582 102.26163086 36.2746582 101.92163086 36.2746582 C101.76307617 35.6455957 101.60452148 35.0165332 101.44116211 34.3684082 C98.58874769 23.90430227 93.88222256 16.60536368 84.92163086 10.2746582 C72.53732221 3.60098574 59.74941777 2.95261501 45.96459961 2.9387207 C44.44769674 2.93227824 42.93079506 2.92554885 41.41389465 2.91854858 C38.25636917 2.90665823 35.0989525 2.90285988 31.94140625 2.90405273 C27.90529533 2.90425707 23.86987941 2.87680088 19.83393383 2.84250832 C16.71029977 2.82024401 13.58683432 2.81621481 10.46312904 2.81727219 C8.97483201 2.81492147 7.48652996 2.8061278 5.998312 2.79060745 C3.91911295 2.77092664 1.84143249 2.77678828 -0.23779297 2.78881836 C-1.41706863 2.78596832 -2.5963443 2.78311829 -3.81135559 2.78018188 C-7.80919065 3.38527113 -9.9784942 4.71314458 -13.07836914 7.2746582 C-14.40146965 11.47744806 -14.36512497 13.53728606 -12.76586914 17.6496582 C-11.34203554 20.35554949 -11.34203554 20.35554949 -9.07836914 21.2746582 C-6.95162707 21.38516357 -4.82143735 21.431194 -2.69189453 21.44824219 C-2.03627533 21.4549292 -1.38065613 21.46161621 -0.70516968 21.46850586 C0.72166514 21.48257006 2.14852264 21.49445975 3.57539177 21.50445366 C5.84278799 21.52088832 8.11002007 21.54413403 10.37733459 21.5693512 C16.82536574 21.64000925 23.27346879 21.69984539 29.72167969 21.75146484 C33.66632962 21.78352256 37.61079837 21.82487696 41.55529976 21.87166023 C43.05057017 21.88753895 44.54588234 21.89992453 46.04121208 21.90856743 C70.95453924 22.05448142 70.95453924 22.05448142 80.92163086 31.0871582 C82.4749207 34.48497972 82.52183836 37.65945488 81.92163086 41.2746582 C79.5564308 46.62206703 76.41350349 48.37974722 71.23803711 50.51293945 C66.49324622 52.07319953 62.10110685 52.40200576 57.11523438 52.41650391 C56.45114563 52.41997833 55.78705688 52.42345276 55.10284424 52.42703247 C53.66785573 52.43435558 52.23285614 52.43971921 50.79785347 52.44332314 C48.52317896 52.45052609 46.24871552 52.46621963 43.97410583 52.48466492 C37.50929604 52.53696383 31.04460682 52.58511399 24.57958984 52.60058594 C20.61839551 52.61068498 16.65774093 52.64005093 12.69676018 52.68190575 C11.19178288 52.69418671 9.68672931 52.69934231 8.18170357 52.69710732 C6.07302598 52.69474566 3.96589043 52.71697989 1.85742188 52.74462891 C0.06136253 52.75342827 0.06136253 52.75342827 -1.77098083 52.7624054 C-5.775784 53.38267477 -7.93446985 54.75818062 -11.07836914 57.2746582 C-13.53247272 60.95581357 -13.31124757 62.92759418 -13.07836914 67.2746582 C-12.40096022 70.28578766 -12.40096022 70.28578766 -10.44345093 71.44499207 C-7.29465207 72.54958464 -4.5752183 72.53679144 -1.23706055 72.54931641 C-0.55670746 72.55442734 0.12364563 72.55953827 0.82461548 72.56480408 C3.07318958 72.5786951 5.32145642 72.5777417 7.57006836 72.57543945 C9.14507153 72.57933072 10.72007367 72.58366628 12.29507446 72.58842468 C15.60210561 72.59588882 18.90903006 72.5955972 22.21606445 72.59033203 C26.41626238 72.58458055 30.61601309 72.60136155 34.81613731 72.6246767 C38.07478311 72.63955769 41.33332528 72.64026572 44.59199905 72.63716698 C46.13786316 72.63767446 47.68373397 72.64280228 49.22956467 72.6529789 C61.30311426 72.72262244 73.60112964 72.17341917 84.48413086 66.3371582 C85.41354492 65.85375977 86.34295898 65.37036133 87.30053711 64.87231445 C95.40127674 59.93460579 98.89957051 54.03863323 101.92163086 45.2746582 C102.58163086 45.2746582 103.24163086 45.2746582 103.92163086 45.2746582 C103.92163086 41.6446582 103.92163086 38.0146582 103.92163086 34.2746582 C104.25163086 34.2746582 104.58163086 34.2746582 104.92163086 34.2746582 C105.42639466 45.49163152 104.12443171 52.42621332 96.92553711 61.1730957 C88.60408443 69.90007726 76.19885586 74.87831106 64.286026 75.44874573 C62.92123995 75.47572285 61.55634573 75.49755934 60.19140625 75.51513672 C59.44099564 75.52813309 58.69058502 75.54112946 57.91743469 75.55451965 C50.12166541 75.68062739 42.32487833 75.73783468 34.52832031 75.78955078 C30.83338041 75.81635109 27.13972087 75.86517526 23.4453125 75.93310547 C18.97081628 76.01514207 14.49754429 76.0577438 10.02233696 76.07261467 C8.32261132 76.084838 6.62292466 76.11081504 4.92363167 76.15106392 C-8.25197131 76.4476767 -8.25197131 76.4476767 -12.70852661 73.5854187 C-15.798704 70.25771019 -17.46019303 67.70892906 -17.32836914 63.0871582 C-16.07949637 57.81299304 -12.47671369 55.35362074 -8.34060669 52.16220093 C-4.55505249 49.97186525 -2.41150451 49.79096112 1.92993164 49.82397461 C2.6040358 49.82327469 3.27813995 49.82257477 3.97267151 49.82185364 C5.42785713 49.82256757 6.88306067 49.8322146 8.33813858 49.84993362 C10.65266435 49.87663276 12.96583296 49.8764816 15.28048706 49.86923218 C21.85770326 49.85364408 28.43444004 49.88765389 35.01147461 49.93481445 C39.04518101 49.96188614 43.07807477 49.95939424 47.11181259 49.94034958 C48.63702819 49.93927763 50.16230063 49.94951366 51.68735123 49.97197342 C61.54057324 50.11653585 69.54069499 49.08057221 77.92163086 43.2746582 C79.5465548 40.02481033 79.60704772 36.77566002 78.92163086 33.2746582 C74.7444773 28.34775913 70.23916746 27.12734044 63.92163086 26.2746582 C59.20877682 26.02424075 54.50755049 25.97564148 49.78878021 25.96969795 C47.42577457 25.96599754 45.063175 25.94917631 42.70025635 25.92893982 C35.9889683 25.87384824 29.27762481 25.84277053 22.56616211 25.81835938 C18.44484924 25.80247381 14.32383361 25.7722599 10.20267487 25.73359489 C8.63824874 25.72197 7.07376954 25.71601476 5.50930023 25.71591377 C3.32448726 25.7157214 1.14049566 25.69743731 -1.04418945 25.67529297 C-2.28501282 25.67022232 -3.52583618 25.66515167 -4.80426025 25.65992737 C-9.73362986 25.07988126 -12.19700535 23.29894585 -15.39086914 19.5871582 C-17.42734501 15.58963149 -18.09403524 12.67004081 -17.07836914 8.2746582 C-13.24934442 1.15016139 -7.55191356 0.02784595 0 0 Z " fill="#6030D2" transform="translate(126.078369140625,60.725341796875)"/>
<path d="M0 0 C1.36920921 -0.00542725 2.73841257 -0.01255329 4.10760498 -0.02124023 C7.81510603 -0.03942593 11.52216008 -0.03242054 15.22966862 -0.01972389 C19.13121241 -0.00954681 23.03271972 -0.01900484 26.93426514 -0.02526855 C33.49791258 -0.03254169 40.06137994 -0.02297695 46.625 -0.00390625 C54.16561076 0.01775308 61.70578697 0.01089012 69.24638677 -0.01121187 C75.75296539 -0.0295065 82.25941489 -0.0318531 88.766011 -0.0214572 C92.63706081 -0.01528463 96.50790835 -0.01420888 100.3789444 -0.02760315 C137.98237428 -0.13992813 169.33670825 7.51679026 197.15527344 34.08007812 C205.34825365 42.71323578 211.46015532 52.99540405 216.65917969 63.64257812 C216.97516113 64.26994873 217.29114258 64.89731934 217.61669922 65.54370117 C219.66600399 69.94473587 219.66600399 69.94473587 218.64746094 72.94726562 C218.06544922 73.72457031 218.06544922 73.72457031 217.47167969 74.51757812 C217.15457031 73.62039062 216.83746094 72.72320312 216.51074219 71.79882812 C210.95145416 56.69647077 202.64362042 41.40191125 189.70996094 31.37695312 C188.97132813 30.76335938 188.23269531 30.14976563 187.47167969 29.51757812 C187.47167969 28.85757813 187.47167969 28.19757812 187.47167969 27.51757812 C186.91609375 27.25460938 186.36050781 26.99164063 185.78808594 26.72070312 C183.21286505 25.38315163 180.83788019 23.85571218 178.40917969 22.26757812 C167.31764246 14.47792849 167.31764246 14.47792849 154.47167969 12.51757812 C153.48167969 12.18757813 152.49167969 11.85757812 151.47167969 11.51757812 C150.54355469 11.82695312 150.54355469 11.82695312 149.59667969 12.14257812 C146.48561817 12.69158898 145.03115602 11.20144413 142.47167969 9.51757812 C141.81167969 9.51757812 141.15167969 9.51757812 140.47167969 9.51757812 C140.47167969 8.85757812 140.47167969 8.19757812 140.47167969 7.51757812 C134.98011561 6.2700017 129.39491315 5.83085419 123.80175781 5.26757812 C117.68231577 4.62289616 117.68231577 4.62289616 115.47167969 3.51757812 C113.77247787 3.42029362 112.06945919 3.38689017 110.36747742 3.38386536 C108.74605331 3.37746788 108.74605331 3.37746788 107.09187317 3.37094116 C105.90067368 3.37139435 104.70947418 3.37184753 103.48217773 3.37231445 C102.23170654 3.36895584 100.98123535 3.36559723 99.69287109 3.36213684 C96.25679447 3.35424788 92.82077826 3.35095825 89.38469672 3.35032105 C86.51699618 3.34937238 83.64930146 3.34569443 80.78160316 3.34214896 C74.01463675 3.3339999 67.24768364 3.33156508 60.48071289 3.33227539 C53.50069683 3.33287582 46.52075814 3.32233209 39.54076165 3.30653173 C33.54918164 3.29345218 27.55762689 3.28809169 21.56603271 3.2887308 C17.987152 3.28898573 14.40833999 3.28613734 10.8294735 3.27555275 C6.8360504 3.2640653 2.84280028 3.26862113 -1.15063477 3.2746582 C-2.92832497 3.26622894 -2.92832497 3.26622894 -4.7419281 3.25762939 C-6.37604141 3.26392113 -6.37604141 3.26392113 -8.04316711 3.27033997 C-8.98725087 3.2697952 -9.93133463 3.26925043 -10.90402699 3.26868916 C-13.85273831 3.54834605 -15.9205809 4.10691753 -18.52832031 5.51757812 C-20.51189469 8.33370962 -20.78312295 10.70595678 -20.80679321 14.09869385 C-20.8179567 15.01292114 -20.82912018 15.92714844 -20.84062195 16.86907959 C-20.84278214 17.86457825 -20.84494232 18.8600769 -20.84716797 19.88574219 C-20.85721359 20.93971191 -20.86725922 21.99368164 -20.87760925 23.07958984 C-20.90850566 26.56412205 -20.92549453 30.04857719 -20.94238281 33.53320312 C-20.96108924 35.94887966 -20.98066225 38.36454963 -21.00106812 40.7802124 C-21.05245067 47.13908011 -21.09204373 53.49796902 -21.12921143 59.85693359 C-21.16921262 66.34543122 -21.22032269 72.83384019 -21.27050781 79.32226562 C-21.36733965 92.05397312 -21.45209846 104.78573142 -21.52832031 117.51757812 C-22.51832031 117.18757813 -23.50832031 116.85757813 -24.52832031 116.51757812 C-24.62108534 103.09588741 -24.69211866 89.67427323 -24.735569 76.25232697 C-24.75642518 70.01966511 -24.78470749 63.78722294 -24.83007812 57.5546875 C-24.87360515 51.53761135 -24.89747224 45.52074624 -24.90782928 39.50352478 C-24.91520826 37.21024759 -24.92961769 34.91698168 -24.95124054 32.62379456 C-24.98036483 29.40649644 -24.98427243 26.19006542 -24.98242188 22.97265625 C-24.99680298 22.02894165 -25.01118408 21.08522705 -25.02600098 20.11291504 C-24.98897295 14.14611294 -24.23188279 9.34555048 -20.52832031 4.51757812 C-14.39940681 -0.68955771 -7.74945957 -0.04929869 0 0 Z " fill="#8238E3" transform="translate(72.5283203125,11.482421875)"/>
<path d="M0 0 C0.83693893 -0.0071553 1.67387787 -0.01431061 2.53617859 -0.02168274 C3.45620667 -0.02437164 4.37623474 -0.02706055 5.32414246 -0.02983093 C6.2917601 -0.03640213 7.25937775 -0.04297333 8.25631714 -0.04974365 C11.46797253 -0.0695026 14.67958112 -0.08114466 17.89128113 -0.09111023 C18.98646246 -0.09518576 20.08164379 -0.09926128 21.21001244 -0.10346031 C27.00586637 -0.12433152 32.80169655 -0.13862905 38.59757996 -0.147995 C44.59007876 -0.15906532 50.58220683 -0.19346969 56.57457447 -0.23316669 C61.17707011 -0.25928622 65.77947678 -0.26768267 70.38204002 -0.27127647 C72.59126478 -0.27615401 74.80048526 -0.28780099 77.00963783 -0.30631447 C80.10045041 -0.33060762 83.19029531 -0.32975871 86.28117371 -0.32279968 C87.19512909 -0.33560974 88.10908447 -0.3484198 89.05073547 -0.36161804 C93.17240996 -0.327764 95.40539924 -0.21805743 98.97897339 1.98904419 C103.19634872 6.4997672 103.42726677 9.46175901 103.31706238 15.41279602 C102.871674 19.21489194 101.57375776 21.35541248 98.99674988 24.14717102 C96.16328009 25.86193935 94.05379632 26.40022363 90.75971985 26.42132568 C89.92147675 26.43130081 89.08323364 26.44127594 88.21958923 26.45155334 C86.85268951 26.45255035 86.85268951 26.45255035 85.45817566 26.4535675 C84.00872055 26.46605278 84.00872055 26.46605278 82.52998352 26.47879028 C79.33396889 26.50289597 76.13815829 26.51166291 72.94206238 26.51826477 C70.72012775 26.52723025 68.49819375 26.53635208 66.27626038 26.54562378 C61.61748283 26.56211759 56.95877719 26.56981469 52.29997253 26.57270813 C46.33217006 26.57809405 40.36504378 26.61578174 34.39743233 26.66145229 C29.80774978 26.69120255 25.21823052 26.69843124 20.62845993 26.69943428 C18.42842891 26.70364014 16.22839757 26.71608899 14.02846146 26.73695183 C10.94984009 26.76382472 7.87279215 26.75905251 4.79411316 26.74653625 C3.88689514 26.76137054 2.97967712 26.77620483 2.04496765 26.79148865 C-2.27953556 26.74145457 -5.10920351 26.51151416 -8.52964783 23.72299194 C-12.34320729 19.75184174 -13.62655493 16.99816694 -13.53059387 11.31513977 C-12.48789676 7.02849607 -9.19299257 4.04103238 -6.00325012 1.14717102 C-3.74329756 0.01719474 -2.50820642 0.01470144 0 0 Z M-8.00325012 5.14717102 C-10.82693583 9.38269958 -10.66978769 13.17194416 -10.00325012 18.14717102 C-8.20678158 21.08140297 -7.05914302 22.61922457 -4.00325012 24.14717102 C-0.94804838 24.25642569 2.08470452 24.30451386 5.14054871 24.30830383 C6.08865921 24.31326874 7.03676971 24.31823364 8.01361084 24.323349 C11.16034157 24.33799279 14.30702188 24.34477654 17.45378113 24.35029602 C19.63612876 24.35604593 21.81847638 24.36180368 24.00082397 24.36756897 C28.58158097 24.37808546 33.16232039 24.38392379 37.74308777 24.3874054 C43.61445253 24.39288952 49.48558532 24.41691321 55.35687733 24.44537735 C59.86672648 24.46399657 64.3765197 24.46920897 68.88640404 24.47074127 C71.05095881 24.47377027 73.21551254 24.48180706 75.38002968 24.49492645 C78.40845526 24.51197069 81.43631344 24.51011046 84.46476746 24.50361633 C85.80764832 24.51743851 85.80764832 24.51743851 87.17765808 24.53153992 C91.91887829 24.49967227 95.19515779 24.30823428 98.99674988 21.14717102 C101.15690622 17.40290003 101.98464972 14.84898025 102.05924988 10.52217102 C100.74733005 6.35489628 98.75870661 4.21771623 94.99674988 2.14717102 C91.8234455 1.45120014 88.7452463 1.48290135 85.5065155 1.53193665 C84.56918076 1.52638763 83.63184601 1.52083862 82.66610718 1.51512146 C79.57787931 1.50334247 76.49112441 1.52758325 73.40299988 1.55342102 C71.25118578 1.55513266 69.0993696 1.5550659 66.94755554 1.55329895 C62.44177756 1.55495121 57.9364977 1.57363255 53.43083191 1.60517883 C47.66049194 1.64485571 41.89080419 1.64922337 36.1203537 1.641716 C31.67818751 1.63864382 27.23616744 1.65077575 22.79403687 1.66784668 C20.66661496 1.67486894 18.53917649 1.67800215 16.41174316 1.67715454 C13.4365201 1.67895587 10.46207285 1.70036692 7.48698425 1.72724915 C6.61096054 1.72431854 5.73493683 1.72138794 4.83236694 1.71836853 C-0.1683565 1.78794521 -3.69753954 2.32202203 -8.00325012 5.14717102 Z " fill="#4F3ECD" transform="translate(122.00325012207031,158.8528289794922)"/>
<path d="M0 0 C0.33 0 0.66 0 1 0 C3.46027635 12.18233612 3.2709054 26.30143302 -1 38 C-1.38285156 39.06347656 -1.38285156 39.06347656 -1.7734375 40.1484375 C-5.09545266 47.85916994 -11.54702958 55.15531242 -19 59 C-19.66 59 -20.32 59 -21 59 C-21.33 60.65 -21.66 62.3 -22 64 C-21.34 64.185625 -20.68 64.37125 -20 64.5625 C-10.7594188 68.99027849 -4.73618648 77.36329236 -0.8984375 86.671875 C4.56359648 104.74252948 1.39193963 125.37889435 -7.1875 141.875 C-11.03867355 148.90598309 -15.55942159 155.09702161 -21 161 C-21.59941406 161.6909375 -22.19882812 162.381875 -22.81640625 163.09375 C-30.70292431 171.67864223 -42.94863126 180.18225444 -54 184 C-56.7734375 184.1171875 -56.7734375 184.1171875 -59 184 C-59 183.34 -59 182.68 -59 182 C-58.17757812 181.72027344 -57.35515625 181.44054687 -56.5078125 181.15234375 C-48.73730066 178.36177887 -42.51905183 175.02673876 -36 170 C-35.30261719 169.505 -34.60523438 169.01 -33.88671875 168.5 C-17.5693514 156.84021129 -7.12455462 139.87207268 -3.265625 120.26953125 C-0.85671161 105.08361102 -1.68585407 90.84839734 -9 77 C-11.33336666 73.99666733 -11.33336666 73.99666733 -14 72 C-14.845625 71.278125 -15.69125 70.55625 -16.5625 69.8125 C-18.85104618 67.94340154 -18.85104618 67.94340154 -21.25 67.125 C-23 66 -23 66 -23.9375 63.0625 C-24 60 -24 60 -22.7421875 58.48046875 C-20.95173482 56.95898542 -19.11017731 55.6000456 -17.1875 54.25 C-9.30784008 48.33664053 -5.81978346 42.44265949 -3 33 C-2.7376355 32.12371948 -2.7376355 32.12371948 -2.4699707 31.22973633 C-1.87186426 28.39207082 -1.7987707 25.67248525 -1.71875 22.7734375 C-1.68136719 21.5771875 -1.64398438 20.3809375 -1.60546875 19.1484375 C-1.53493806 16.62500609 -1.4646269 14.10156853 -1.39453125 11.578125 C-1.35714844 10.38445312 -1.31976563 9.19078125 -1.28125 7.9609375 C-1.25095703 6.86571777 -1.22066406 5.77049805 -1.18945312 4.64208984 C-1 2 -1 2 0 0 Z " fill="#5336D2" transform="translate(294,94)"/>
<path d="M0 0 C1.45393266 -0.00524332 2.90786191 -0.01152238 4.36178589 -0.01878357 C7.39613964 -0.02914703 10.43002317 -0.02468281 13.46435547 -0.01000977 C17.34275139 0.00721532 21.21967086 -0.01638185 25.0979023 -0.05149937 C28.09550695 -0.07350538 31.09275953 -0.0720251 34.09041977 -0.06373405 C35.52009583 -0.06291709 36.94979839 -0.06973168 38.37939835 -0.08450508 C50.91030992 -0.19421686 50.91030992 -0.19421686 54.85107422 2.98071289 C58.39343997 7.25861434 58.38014103 10.34875971 58.3515625 15.79296875 C57.79508004 20.08756162 56.16046863 21.69986618 52.9921875 24.56640625 C50.08014067 26.02242967 47.50364323 25.72598685 44.25097656 25.75927734 C43.55806519 25.76745483 42.86515381 25.77563232 42.15124512 25.78405762 C39.85344303 25.80891022 37.55570281 25.82542877 35.2578125 25.83984375 C34.47279106 25.84516743 33.68776962 25.8504911 32.87895966 25.8559761 C28.72237626 25.88270944 24.5658229 25.90208212 20.40917969 25.91650391 C16.12051727 25.93313606 11.83262567 25.9779003 7.5442543 26.02887535 C4.24305362 26.06257388 0.94203514 26.0740842 -2.35932159 26.07973099 C-3.93975961 26.08643829 -5.52018585 26.10164701 -7.10045624 26.1256218 C-9.31727858 26.15732995 -11.53203281 26.15730295 -13.74902344 26.14990234 C-15.63859772 26.16203262 -15.63859772 26.16203262 -17.56634521 26.17440796 C-22.12746445 25.36859809 -23.7465907 23.80225884 -27.0078125 20.56640625 C-28.58772694 17.40657736 -28.35201985 15.06584764 -28.0078125 11.56640625 C-25.83532151 6.69352926 -22.43529389 3.66118999 -17.60943604 1.37820435 C-11.92268881 -0.39626091 -5.90379358 -0.02598109 0 0 Z M-23.0078125 7.56640625 C-25.0316275 10.60212875 -25.34555503 11.52413112 -25.4453125 15.00390625 C-25.48527344 15.76574219 -25.52523437 16.52757812 -25.56640625 17.3125 C-24.72122261 20.72278645 -22.89943102 21.67141762 -20.0078125 23.56640625 C-16.80780301 24.16130896 -16.80780301 24.16130896 -13.29321289 24.06811523 C-12.63887772 24.07351822 -11.98454254 24.0789212 -11.31037903 24.08448792 C-9.15827484 24.09694332 -7.00751716 24.08050591 -4.85546875 24.0625 C-3.3524112 24.06265508 -1.84935324 24.06414561 -0.34629822 24.06690979 C2.80015801 24.06829241 5.94615764 24.05576092 9.0925293 24.03295898 C13.1153084 24.00459877 17.13732783 24.00730663 21.16016293 24.0200491 C24.26325406 24.02702243 27.36617127 24.01919782 30.46924019 24.00679207 C31.95192357 24.00229188 33.43462571 24.0019282 34.91731071 24.00585747 C36.9946571 24.00878547 39.07097708 23.99218849 41.14819336 23.97045898 C42.91760536 23.96235451 42.91760536 23.96235451 44.72276306 23.9540863 C48.42777496 23.51475539 50.82552614 22.517939 53.9921875 20.56640625 C56.00690347 17.5443323 56.32937784 16.64913926 56.4296875 13.19140625 C56.46964844 12.44117188 56.50960937 11.6909375 56.55078125 10.91796875 C55.69932479 7.33351568 53.79198847 5.88842468 50.9921875 3.56640625 C47.80003979 2.82194665 47.80003979 2.82194665 44.27758789 2.93530273 C43.62325272 2.92814743 42.96891754 2.92099213 42.29475403 2.91362 C40.14239608 2.89677957 37.99213544 2.91610594 35.83984375 2.9375 C34.33678516 2.93667075 32.83372667 2.93420925 31.33067322 2.93019104 C28.1841189 2.92733614 25.0382776 2.94200091 21.8918457 2.96948242 C17.86889579 3.00353645 13.8472228 2.9975545 9.82421207 2.97881985 C6.7210791 2.96822337 3.61824046 2.97721193 0.51513481 2.99220467 C-0.96754646 2.99736958 -2.45025869 2.99692527 -3.93293571 2.99065971 C-6.01056256 2.98517608 -8.0863962 3.00567882 -10.16381836 3.03295898 C-11.93323036 3.04225685 -11.93323036 3.04225685 -13.73838806 3.05174255 C-17.71726747 3.67808668 -19.88022201 5.06855548 -23.0078125 7.56640625 Z " fill="#3139E2" transform="translate(137.0078125,206.43359375)"/>
<path d="M0 0 C0.33 0 0.66 0 1 0 C1.5047638 11.21697332 0.20280086 18.15155512 -6.99609375 26.8984375 C-15.31754643 35.62541906 -27.72277499 40.60365285 -39.63560486 41.17408752 C-41.00039091 41.20106464 -42.36528513 41.22290114 -43.73022461 41.24047852 C-44.48063522 41.25347488 -45.23104584 41.26647125 -46.00419617 41.27986145 C-53.79996545 41.40596919 -61.59675253 41.46317648 -69.39331055 41.51489258 C-73.08825045 41.54169289 -76.78190999 41.59051706 -80.47631836 41.65844727 C-84.95081458 41.74048386 -89.42408657 41.7830856 -93.8992939 41.79795647 C-95.59901954 41.8101798 -97.2987062 41.83615683 -98.99799919 41.87640572 C-112.17360217 42.1730185 -112.17360217 42.1730185 -116.63015747 39.3107605 C-119.72033486 35.98305199 -121.38182389 33.43427086 -121.25 28.8125 C-120.00078736 23.53689949 -116.39747109 21.07609239 -112.25692749 17.88775635 C-108.49793291 15.70899557 -106.38771214 15.51384601 -102.07666016 15.54589844 C-101.08048172 15.54502228 -101.08048172 15.54502228 -100.06417847 15.54412842 C-97.88859128 15.5468953 -95.7144076 15.57791692 -93.5390625 15.609375 C-92.02306873 15.61684246 -90.50706525 15.62253301 -88.99105835 15.62652588 C-85.01569613 15.64174274 -81.04092558 15.68098944 -77.0657959 15.7253418 C-73.00358075 15.76638043 -68.94126929 15.78455515 -64.87890625 15.8046875 C-56.91900039 15.84748846 -48.95957395 15.91569078 -41 16 C-41 16.33 -41 16.66 -41 17 C-42.23575523 17.00213753 -42.23575523 17.00213753 -43.49647522 17.00431824 C-51.27945374 17.02218487 -59.06177313 17.06390586 -66.84446049 17.13209057 C-70.84519435 17.16630885 -74.84554845 17.1914624 -78.84643555 17.19555664 C-82.71121977 17.19985085 -86.57514812 17.2284047 -90.43966484 17.27343178 C-91.91031334 17.28637126 -93.38106446 17.29072703 -94.85176277 17.28615379 C-105.9472936 17.17725987 -105.9472936 17.17725987 -115 23 C-117.45410358 26.68115537 -117.23287843 28.65293598 -117 33 C-116.32259108 36.01112945 -116.32259108 36.01112945 -114.36508179 37.17033386 C-111.21628293 38.27492644 -108.49684916 38.26213323 -105.15869141 38.2746582 C-104.47833832 38.27976913 -103.79798523 38.28488007 -103.09701538 38.29014587 C-100.84844127 38.3040369 -98.60017444 38.3030835 -96.3515625 38.30078125 C-94.77655932 38.30467252 -93.20155719 38.30900807 -91.6265564 38.31376648 C-88.31952525 38.32123062 -85.0126008 38.320939 -81.70556641 38.31567383 C-77.50536848 38.30992234 -73.30561777 38.32670335 -69.10549355 38.3500185 C-65.84684775 38.36489949 -62.58830557 38.36560752 -59.32963181 38.36250877 C-57.7837677 38.36301626 -56.23789688 38.36814408 -54.69206619 38.37832069 C-42.6185166 38.44796423 -30.32050122 37.89876097 -19.4375 32.0625 C-18.50808594 31.57910156 -17.57867187 31.09570312 -16.62109375 30.59765625 C-8.52035412 25.65994759 -5.02206035 19.76397503 -2 11 C-1.34 11 -0.68 11 0 11 C0 7.37 0 3.74 0 0 Z " fill="#5734D8" transform="translate(230,95)"/>
<path d="M0 0 C2.4375 0.375 2.4375 0.375 5 1 C5.99 1 6.98 1 8 1 C5.4345406 3.5654594 3.52313332 3.54046087 0 4 C0 4.66 0 5.32 0 6 C0.99 6.495 0.99 6.495 2 7 C-0.22844214 7.6483289 -2.4577846 8.29356369 -4.6875 8.9375 C-5.92886719 9.29714844 -7.17023438 9.65679687 -8.44921875 10.02734375 C-13.05715284 11.28958312 -17.23311744 12.12369816 -22.01612854 12.13803101 C-23.00167725 12.14348434 -23.98722595 12.14893768 -25.00263977 12.15455627 C-26.60730354 12.15611977 -26.60730354 12.15611977 -28.24438477 12.15771484 C-29.94759384 12.16533592 -29.94759384 12.16533592 -31.68521118 12.17311096 C-34.14823704 12.18380238 -36.61127254 12.19242736 -39.07431221 12.19923019 C-42.96983543 12.21102357 -46.86524802 12.23047571 -50.76072693 12.25234985 C-61.83548064 12.31417245 -72.91022756 12.36833064 -83.98510742 12.40136719 C-90.76014427 12.42166541 -97.53496946 12.45753495 -104.30988884 12.50212479 C-106.8938959 12.5163131 -109.47793903 12.52501357 -112.06198311 12.52817917 C-115.6698772 12.53306878 -119.27722587 12.55617532 -122.88500977 12.58349609 C-123.95680984 12.58048996 -125.02860992 12.57748383 -126.13288879 12.5743866 C-127.11561768 12.58547958 -128.09834656 12.59657257 -129.1108551 12.60800171 C-130.38978055 12.61296693 -130.38978055 12.61296693 -131.69454288 12.61803246 C-134.4837929 13.08015468 -135.89127238 14.16373017 -138 16 C-138.98120464 12.94736336 -138.98120464 11.05263664 -138 8 C-133.20868514 7.89805713 -128.66573687 8.2169971 -123.91796875 8.87890625 C-121.91454577 9.16672441 -121.91454577 9.16672441 -120 8 C-120 8.66 -120 9.32 -120 10 C-114.76650413 9.43287369 -114.76650413 9.43287369 -109.625 8.375 C-108 8 -108 8 -106 9 C-103.60348437 9.10839401 -101.23559442 9.15730513 -98.83837891 9.16113281 C-97.7303315 9.16858017 -97.7303315 9.16858017 -96.59989929 9.17617798 C-94.14211091 9.19084014 -91.68438756 9.19761631 -89.2265625 9.203125 C-87.95939959 9.20736607 -87.95939959 9.20736607 -86.66663742 9.21169281 C-82.17619258 9.22671954 -77.68578001 9.23592062 -73.1953125 9.24023438 C-68.61006318 9.24565441 -64.02512068 9.26953208 -59.4399662 9.29820633 C-55.87398516 9.31710001 -52.30807316 9.32205274 -48.74204636 9.32357025 C-47.0559971 9.32654914 -45.36994759 9.33441053 -43.68394852 9.34775543 C-31.87224207 9.43439564 -20.61881353 8.33900849 -8.98592186 6.27018356 C-7 6 -7 6 -3 6 C-2.814375 5.071875 -2.814375 5.071875 -2.625 4.125 C-2 2 -2 2 0 0 Z " fill="#2A59EF" transform="translate(235,272)"/>
<path d="M0 0 C0.99 0.33 1.98 0.66 3 1 C3 34.66 3 68.32 3 103 C2.01 103.495 2.01 103.495 1 104 C-0.11119173 82.68252147 -0.12308745 61.39654483 -0.06866455 40.05688477 C-0.0582444 35.52360515 -0.05382784 30.99031951 -0.04882812 26.45703125 C-0.03825602 17.63800492 -0.02129915 8.81900694 0 0 Z " fill="#4E43E5" transform="translate(48,128)"/>
<path d="M0 0 C0.33 0 0.66 0 1 0 C1 34.65 1 69.3 1 105 C0.01 104.67 -0.98 104.34 -2 104 C-2.11841884 81.57329355 -1.99951223 59.17327675 -1.35571289 36.75439453 C-1.30970779 35.11361657 -1.26404904 33.47282886 -1.21875 31.83203125 C-1.18538795 30.64462341 -1.18538795 30.64462341 -1.15135193 29.43322754 C-0.96524064 22.13725859 -0.98060322 14.84397221 -1.06237793 7.54634094 C-1.07751614 5.36418074 -1.04373416 3.18177442 -1 1 C-0.67 0.67 -0.34 0.34 0 0 Z " fill="#6B3BE8" transform="translate(50,24)"/>
<path d="M0 0 C0.33 0 0.66 0 1 0 C3.86083219 12.15853679 -2.77553853 24.01830291 -8.88818359 34.25146484 C-11.82597056 38.8716735 -15.32490908 42.95870785 -19 47 C-19.90105469 48.04027344 -19.90105469 48.04027344 -20.8203125 49.1015625 C-28.23541982 57.15867045 -43.49783891 69.64075376 -54.7734375 70.1171875 C-55.50820312 70.07851563 -56.24296875 70.03984375 -57 70 C-57 69.34 -57 68.68 -57 68 C-56.17757812 67.72027344 -55.35515625 67.44054687 -54.5078125 67.15234375 C-46.73730066 64.36177887 -40.51905183 61.02673876 -34 56 C-33.30261719 55.505 -32.60523438 55.01 -31.88671875 54.5 C-13.95348102 41.68556993 -4.05858745 23.08285581 -0.26171875 1.66015625 C-0.17535156 1.11230469 -0.08898437 0.56445312 0 0 Z " fill="#353CDB" transform="translate(292,208)"/>
<path d="M0 0 C24.60334723 7.59039436 44.00472255 26.84927299 56.10595703 49.02685547 C57.16750156 51.04441085 58.18719686 53.07646148 59.1875 55.125 C59.50348145 55.75237061 59.81946289 56.37974121 60.14501953 57.02612305 C62.1943243 61.42715775 62.1943243 61.42715775 61.17578125 64.4296875 C60.78777344 64.94789062 60.39976562 65.46609375 60 66 C59.68289063 65.1028125 59.36578125 64.205625 59.0390625 63.28125 C53.47977447 48.17889265 45.17194073 32.88433312 32.23828125 22.859375 C31.49964844 22.24578125 30.76101563 21.6321875 30 21 C30 20.34 30 19.68 30 19 C29.43796875 18.73445313 28.8759375 18.46890625 28.296875 18.1953125 C25.82039487 16.90653202 23.57172562 15.42522052 21.25 13.875 C14.14510054 9.29585856 6.59949928 5.67102537 -1 2 C-0.67 1.34 -0.34 0.68 0 0 Z " fill="#6D34D0" transform="translate(230,20)"/>
<path d="M0 0 C5.35240127 0.62969427 8.98479291 3.11914005 12.875 6.75 C14.57694547 10.15389095 14.61004128 13.32556529 14 17 C11.63479994 22.34740883 8.49187263 24.10508902 3.31640625 26.23828125 C-1.43670151 27.80127621 -5.81450324 28.12279313 -10.80981445 28.11352539 C-11.47378738 28.11367142 -12.13776031 28.11381744 -12.82185364 28.1139679 C-15.00236349 28.11327483 -17.18278644 28.10551099 -19.36328125 28.09765625 C-20.8807114 28.09578992 -22.39814215 28.09436703 -23.91557312 28.09336853 C-27.89891235 28.08956032 -31.8822148 28.07974459 -35.86553955 28.06866455 C-39.93444318 28.05841389 -44.00335279 28.05386309 -48.07226562 28.04882812 C-56.04819391 28.03812074 -64.02409237 28.02106478 -72 28 C-72 27.67 -72 27.34 -72 27 C-70.78756119 27.00119339 -70.78756119 27.00119339 -69.55062866 27.00241089 C-61.87278988 27.00463352 -54.19582491 26.97783041 -46.51822472 26.9197216 C-42.57253874 26.89084704 -38.62743863 26.87257025 -34.68164062 26.87988281 C-30.86212292 26.88654854 -27.04375552 26.86358855 -23.22447586 26.82144547 C-21.77914154 26.81044118 -20.3336887 26.80949737 -18.88834763 26.81957626 C-8.51925957 26.88251962 -0.00810026 25.27275808 9 20 C11.12063566 16.81904651 11.54310678 14.80000627 11.4453125 11 C11.08924294 8.61884868 11.08924294 8.61884868 8.375 6.125 C5.24185026 4.15227609 2.56651433 2.93408709 -1 2 C-0.67 1.34 -0.34 0.68 0 0 Z " fill="#6040C3" transform="translate(194,85)"/>
<path d="M0 0 C0.33 0 0.66 0 1 0 C1.17523001 4.72888007 1.34106487 9.45804666 1.5 14.1875 C1.52400879 14.90007965 1.54801758 15.6126593 1.57275391 16.34683228 C1.96285543 28.19367817 2.08234577 40.01630742 1.96289062 51.86987305 C1.95451172 52.99949463 1.94613281 54.12911621 1.9375 55.29296875 C1.92589844 56.2780542 1.91429687 57.26313965 1.90234375 58.27807617 C1.91490505 61.02451786 1.91490505 61.02451786 2.62890625 63.73168945 C2.75136719 64.48023193 2.87382813 65.22877441 3 66 C2.01 66.99 2.01 66.99 1 68 C0.34 68 -0.32 68 -1 68 C-1.02312611 59.28155997 -1.04091646 50.56313044 -1.05181217 41.84466648 C-1.05704041 37.79674258 -1.06413699 33.74883959 -1.07543945 29.70092773 C-1.08627043 25.79764029 -1.09227728 21.89437301 -1.09487724 17.9910717 C-1.09673111 16.49866353 -1.100351 15.00625652 -1.10573006 13.51385689 C-1.11294331 11.43051861 -1.11399083 9.34726469 -1.11352539 7.26391602 C-1.115746 6.07588882 -1.11796661 4.88786163 -1.12025452 3.66383362 C-1 1 -1 1 0 0 Z " fill="#2449EE" transform="translate(50,231)"/>
<path d="M0 0 C0.70254913 -0.00014603 1.40509827 -0.00029205 2.12893677 -0.0004425 C4.45561795 0.00025525 6.78221949 0.0080412 9.10888672 0.01586914 C10.72028561 0.01773381 12.33168506 0.01915748 13.94308472 0.02015686 C18.18786174 0.02397819 22.43260464 0.03380521 26.67736816 0.04486084 C31.0074009 0.05508321 35.33743915 0.05965625 39.66748047 0.06469727 C48.16619406 0.07542781 56.6648799 0.09249964 65.16357422 0.11352539 C65.16357422 0.44352539 65.16357422 0.77352539 65.16357422 1.11352539 C64.31246063 1.11717102 63.46134705 1.12081665 62.58444214 1.12457275 C54.55106428 1.16248911 46.51809089 1.21938308 38.4849987 1.29742813 C34.35538045 1.33688429 30.22597483 1.3690817 26.09619141 1.38452148 C22.10831123 1.39970064 18.12101568 1.43416765 14.13339615 1.48183441 C12.61447363 1.4966354 11.09546763 1.50456567 9.57647324 1.50540924 C7.44325688 1.50778472 5.31164869 1.53490619 3.17871094 1.56762695 C1.96625702 1.5765094 0.7538031 1.58539185 -0.49539185 1.59454346 C-4.5257831 2.22060721 -6.7115289 3.52507888 -9.83642578 6.11352539 C-11.12341874 10.20162068 -11.08895741 12.36996005 -9.71142578 16.42602539 C-7.62175273 19.42122343 -6.31008785 20.17469781 -2.83642578 21.11352539 C-2.83642578 21.77352539 -2.83642578 22.43352539 -2.83642578 23.11352539 C-5.85015066 23.04343877 -8.03964199 22.82177765 -10.34814453 20.76977539 C-12.7839824 17.69880501 -14.18845118 14.99399183 -14.46142578 11.05102539 C-13.67233743 6.07976881 -12.38632135 4.57889964 -8.83642578 1.11352539 C-5.89395851 -0.35770825 -3.28457556 -0.00572226 0 0 Z " fill="#6F47C0" transform="translate(122.83642578125,61.886474609375)"/>
<path d="M0 0 C1.01058975 0.01397324 1.01058975 0.01397324 2.04159546 0.02822876 C4.25506376 0.06243824 6.4674102 0.11835594 8.68041992 0.17456055 C10.22024692 0.20261092 11.76009929 0.22929949 13.29997253 0.25468445 C17.34283422 0.32497914 21.38508676 0.41372172 25.42749023 0.50634766 C29.55651306 0.59767976 33.68584503 0.67151008 37.81518555 0.74682617 C45.90999085 0.89704348 54.00423638 1.06675675 62.09838867 1.2487793 C62.09838867 1.5787793 62.09838867 1.9087793 62.09838867 2.2487793 C61.25980316 2.25242493 60.42121765 2.25607056 59.55722046 2.25982666 C51.64156841 2.29774515 43.72632676 2.35464148 35.81096458 2.43268204 C31.74188027 2.47213595 27.67301167 2.50433444 23.60375977 2.51977539 C19.67423018 2.53495606 15.74529372 2.56942566 11.81602859 2.61708832 C10.31943553 2.63188776 8.82275777 2.63981949 7.32609177 2.64066315 C5.2239995 2.6430391 3.12353816 2.67016409 1.02172852 2.70288086 C-0.17296051 2.71176331 -1.36764954 2.72064575 -2.59854126 2.72979736 C-6.57364856 3.35437051 -8.77420808 4.76225908 -11.90161133 7.2487793 C-13.62266557 10.69088778 -13.41635749 14.48511577 -12.90161133 18.2487793 C-11.08896485 20.81868928 -11.08896485 20.81868928 -8.90161133 22.2487793 C-12.90161133 22.2487793 -12.90161133 22.2487793 -15.15161133 20.1862793 C-17.3847776 16.4377502 -17.57008931 14.5567485 -16.90161133 10.2487793 C-13.19549353 2.86692171 -8.30582304 -0.16702752 0 0 Z " fill="#454CD4" transform="translate(125.901611328125,207.751220703125)"/>
<path d="M0 0 C1.05055321 0.00848969 1.05055321 0.00848969 2.12232971 0.01715088 C4.3335857 0.0393328 6.54314998 0.08948694 8.75390625 0.140625 C10.26364828 0.16071385 11.773416 0.17896042 13.28320312 0.1953125 C16.96147624 0.23913553 20.63877581 0.30803159 24.31640625 0.390625 C24.31640625 0.720625 24.31640625 1.050625 24.31640625 1.390625 C23.11479858 1.41249878 23.11479858 1.41249878 21.88891602 1.43481445 C18.21845579 1.50981916 14.5488533 1.60630708 10.87890625 1.703125 C9.61884766 1.72568359 8.35878906 1.74824219 7.06054688 1.77148438 C-3.20648683 1.87895005 -3.20648683 1.87895005 -12.68359375 5.390625 C-13.85042281 7.24709073 -13.85042281 7.24709073 -14.68359375 9.390625 C-15.05154053 10.05030273 -15.4194873 10.70998047 -15.79858398 11.38964844 C-16.77678971 13.60133785 -16.90258476 15.00218846 -16.84375 17.40625 C-16.83214844 18.22665771 -16.82054687 19.04706543 -16.80859375 19.89233398 C-16.78796875 20.79927002 -16.76734375 21.70620605 -16.74609375 22.640625 C-16.60410264 34.37954308 -16.87017978 46.0939682 -17.18359375 57.828125 C-17.20769318 58.74444702 -17.2317926 59.66076904 -17.25662231 60.6048584 C-17.39510613 65.86688988 -17.53752903 71.12879868 -17.68359375 76.390625 C-18.01359375 76.390625 -18.34359375 76.390625 -18.68359375 76.390625 C-18.77656492 68.18428532 -18.84749509 59.97816831 -18.89084244 51.77143097 C-18.91165454 47.96006065 -18.93985372 44.14905254 -18.98535156 40.33789062 C-19.02903954 36.65498836 -19.05277874 32.97243292 -19.06310272 29.28929138 C-19.07045325 27.88914028 -19.08480673 26.48900664 -19.10651398 25.08900452 C-19.33399732 9.79962346 -19.33399732 9.79962346 -14.68359375 4.390625 C-10.18385201 0.47680625 -5.92143305 -0.09512342 0 0 Z " fill="#7845D1" transform="translate(66.68359375,11.609375)"/>
<path d="M0 0 C17.74064575 0.95730235 17.74064575 0.95730235 24.0234375 1.7578125 C25.4416431 1.93158473 26.86463236 2.06787216 28.2890625 2.1796875 C33.42830021 2.60938965 37.47151089 3.45272488 42 6 C42.9375 8.1875 42.9375 8.1875 43 10 C41.9275 9.814375 40.855 9.62875 39.75 9.4375 C36.2369897 8.77967052 36.2369897 8.77967052 33.875 9.625 C30.95311155 10.20937769 29.39531202 8.57586317 27 7 C26.34 7 25.68 7 25 7 C25 6.34 25 5.68 25 5 C19.51466007 3.74271113 13.92413651 3.34404068 8.33007812 2.83789062 C7.54697266 2.75861328 6.76386719 2.67933594 5.95703125 2.59765625 C4.88932495 2.49723022 4.88932495 2.49723022 3.80004883 2.39477539 C2 2 2 2 0 0 Z " fill="#934BF8" transform="translate(188,14)"/>
<path d="M0 0 C2.97752446 0.33083605 4.81374721 0.87415352 7.3125 2.5625 C9.2815474 5.40667957 9.64265467 7.58989958 9.4375 11.0390625 C8.64455099 14.59317326 6.90550675 15.92463804 4 18 C1.05196617 19.22259597 -1.91882563 20.17432582 -5 21 C-5 20.01 -5 19.02 -5 18 C-4.34 18 -3.68 18 -3 18 C-3 17.34 -3 16.68 -3 16 C-1.865625 15.4225 -0.73125 14.845 0.4375 14.25 C3.37310297 12.64507365 3.37310297 12.64507365 4.9375 9.75 C4.958125 9.1725 4.97875 8.595 5 8 C2.03 7.505 2.03 7.505 -1 7 C-0.649375 6.401875 -0.29875 5.80375 0.0625 5.1875 C1.33304698 2.89186786 1.33304698 2.89186786 0 0 Z " fill="#824FFB" transform="translate(197,89)"/>
<path d="M0 0 C7.2000975 1.37144714 13.15539619 6.77292747 18 12 C19.20772931 13.16729194 20.41610266 14.33391777 21.625 15.5 C24.26118356 18.12469692 26.28285466 20.66671787 28 24 C25.0625 23.625 25.0625 23.625 22 23 C21 21 21 21 20.6875 19 C20.17554169 16.89074411 20.17554169 16.89074411 18.375 15.8125 C15.28578263 14.75566248 12.23601863 14.37338677 9 14 C9 12.02 9 10.04 9 8 C6.35261084 6.5393715 5.10551666 6 2 6 C1.34 4.02 0.68 2.04 0 0 Z " fill="#914DF9" transform="translate(247,32)"/>
<path d="M0 0 C0.77999359 0.24114784 0.77999359 0.24114784 1.57574463 0.48716736 C4.67880859 1.14359675 7.61532251 1.16479427 10.78808594 1.20532227 C11.46166641 1.21522186 12.13524689 1.22512146 12.82923889 1.23532104 C15.04758229 1.26681658 17.26594707 1.29164597 19.484375 1.31640625 C21.02566066 1.33698611 22.5669408 1.35798285 24.10821533 1.37937927 C28.15891038 1.4344934 32.20965547 1.48394954 36.26043701 1.53222656 C40.39632606 1.58251956 44.53214272 1.63816487 48.66796875 1.69335938 C56.77858457 1.80081052 64.88926107 1.90228428 73 2 C73 2.66 73 3.32 73 4 C72.21961365 3.99777939 71.43922729 3.99555878 70.63519287 3.99327087 C63.27836713 3.97322822 55.92155464 3.95800557 48.56470871 3.94818783 C44.78254786 3.94297076 41.00040958 3.93589443 37.21826172 3.92456055 C33.56783069 3.91368992 29.91742137 3.9077143 26.2669754 3.90512276 C24.87473458 3.90327605 23.48249494 3.8996699 22.09026337 3.89426994 C20.13928894 3.88700424 18.18829264 3.88659147 16.23730469 3.88647461 C15.1269989 3.884254 14.01669312 3.88203339 12.8727417 3.87974548 C10.08514276 3.89586567 10.08514276 3.89586567 7.79766846 4.56959534 C6 5 6 5 3 4 C1.33637583 3.65179959 -0.32995171 3.31595508 -2 3 C-1.34 2.01 -0.68 1.02 0 0 Z " fill="#8C56FB" transform="translate(114,84)"/>
<path d="M0 0 C0.33 0 0.66 0 1 0 C1 21.78 1 43.56 1 66 C0.01 66.495 0.01 66.495 -1 67 C-1.495 49.675 -1.495 49.675 -2 32 C-1.67 32 -1.34 32 -1 32 C-0.67 21.44 -0.34 10.88 0 0 Z " fill="#3E41ED" transform="translate(50,165)"/>
<path d="M0 0 C0.99 0.33 1.98 0.66 3 1 C-5.79456129 10.86706876 -18.33155967 20.6236297 -31 25 C-33.7734375 25.1171875 -33.7734375 25.1171875 -36 25 C-36 24.34 -36 23.68 -36 23 C-35.17757812 22.72027344 -34.35515625 22.44054687 -33.5078125 22.15234375 C-25.73951046 19.36257246 -19.51425142 16.03069759 -13 11 C-12.2678125 10.47019531 -11.535625 9.94039063 -10.78125 9.39453125 C-6.83500224 6.53055666 -3.34200809 3.55088359 0 0 Z " fill="#2F48D5" transform="translate(271,253)"/>
<path d="M0 0 C2.4375 0.375 2.4375 0.375 5 1 C5.99 1 6.98 1 8 1 C5.4345406 3.5654594 3.52313332 3.54046087 0 4 C0 4.66 0 5.32 0 6 C0.66 6.33 1.32 6.66 2 7 C-7.3352222 10.13506713 -15.12277749 11.59066447 -25 11 C-25 10.67 -25 10.34 -25 10 C-17.85112624 7.77590594 -10.51099125 6 -3 6 C-2.87625 5.38125 -2.7525 4.7625 -2.625 4.125 C-2 2 -2 2 0 0 Z " fill="#2C57E2" transform="translate(235,272)"/>
<path d="M0 0 C1.32 0.66 2.64 1.32 4 2 C4 2.66 4 3.32 4 4 C6.64 4.99 9.28 5.98 12 7 C12.33 6.34 12.66 5.68 13 5 C13.94875 5.185625 14.8975 5.37125 15.875 5.5625 C18.89868793 6.28686632 18.89868793 6.28686632 21 5 C21.66 5.66 22.32 6.32 23 7 C18.03988458 10.1490651 14.08333435 11.71365034 8.1875 10.76171875 C4.38046584 9.43605507 1.74062061 6.88161717 -1 4 C-0.67 2.68 -0.34 1.36 0 0 Z " fill="#306BFC" transform="translate(52,299)"/>
<path d="M0 0 C0.33 0 0.66 0 1 0 C2.0955345 5.3374441 2.18349181 10.5144238 2.1875 15.9375 C2.19974609 16.80568359 2.21199219 17.67386719 2.22460938 18.56835938 C2.23642586 23.77943096 1.69779129 28.06768142 0 33 C-2.17166009 29.49923937 -2.18227589 26.8423155 -2.01171875 22.7734375 C-1.96466797 21.5771875 -1.91761719 20.3809375 -1.86914062 19.1484375 C-1.80919922 17.90320313 -1.74925781 16.65796875 -1.6875 15.375 C-1.63916016 14.12203125 -1.59082031 12.8690625 -1.54101562 11.578125 C-1.14479874 2.28959748 -1.14479874 2.28959748 0 0 Z " fill="#653FD8" transform="translate(294,94)"/>
<path d="M0 0 C1.977516 2.33706436 3.00818408 4.0280597 3.875 7 C5.29740245 10.79307319 6.48931641 11.98322432 10 14 C15.05210152 15.23596055 18.37615592 15.43957418 23 13 C23.99 13 24.98 13 26 13 C26 13.66 26 14.32 26 15 C20.33670887 18.0123889 16.26121668 18.53287791 10 17 C5.30335657 14.91260292 2.29524131 11.59048262 0 7 C-0.04022391 4.6670134 -0.04320247 2.33293334 0 0 Z " fill="#2253D9" transform="translate(48,294)"/>
<path d="M0 0 C2 2 2 2 2 5 C2.66 5 3.32 5 4 5 C5.30772597 10.0007441 5.18381971 14.99467497 5.1875 20.125 C5.19974609 21.03121094 5.21199219 21.93742187 5.22460938 22.87109375 C5.22654297 23.74121094 5.22847656 24.61132812 5.23046875 25.5078125 C5.23457764 26.29816895 5.23868652 27.08852539 5.24291992 27.90283203 C5 30 5 30 3 33 C2.43937639 28.58508908 1.93534905 24.32528332 2.0625 19.875 C2.16953369 13.20323306 0.97162929 6.58452347 0 0 Z " fill="#4940D5" transform="translate(290,180)"/>
<path d="M0 0 C0 0.66 0 1.32 0 2 C-0.969375 2.556875 -1.93875 3.11375 -2.9375 3.6875 C-6.27855877 5.74529501 -6.27855877 5.74529501 -7.0625 9.375 C-6.99095623 13.52453856 -6.3694721 15.60375666 -4 19 C-1.44278263 20.42557356 -1.44278263 20.42557356 1 21 C1 21.66 1 22.32 1 23 C-2.01372488 22.92991337 -4.20321621 22.70825226 -6.51171875 20.65625 C-8.94755662 17.58527962 -10.3520254 14.88046644 -10.625 10.9375 C-9.83591165 5.96624342 -8.54989557 4.46537425 -5 1 C-3 0 -3 0 0 0 Z " fill="#6936D1" transform="translate(119,62)"/>
<path d="M0 0 C2.80972581 0.30104205 4.05669289 1.04724408 6.25 2.875 C8.84582371 7.51039948 8.91885614 11.80580497 8 17 C6.58243427 19.57025758 5.18665103 20.9773478 3 23 C1.35 22.67 -0.3 22.34 -2 22 C-1.01 21.34 -0.02 20.68 1 20 C3.46670551 18.23806749 4.798156 16.96334639 5.4296875 13.94921875 C5.6772581 9.6167333 5.35266048 6.86467647 2.5 3.5 C1.675 2.675 0.85 1.85 0 1 C0 0.67 0 0.34 0 0 Z " fill="#3839D1" transform="translate(187,208)"/>
<path d="M0 0 C-1.38926955 4.16780866 -4.37657354 5.92554297 -7.75 8.5 C-8.37132813 8.98597656 -8.99265625 9.47195313 -9.6328125 9.97265625 C-12.97153091 12.55769772 -16.31520297 14.9185116 -20 17 C-20 16.01 -20 15.02 -20 14 C-18.68 13.67 -17.36 13.34 -16 13 C-15.67 11.35 -15.34 9.7 -15 8 C-13.824375 7.7834375 -13.824375 7.7834375 -12.625 7.5625 C-10.03578982 7.12201075 -10.03578982 7.12201075 -8 6 C-7.855625 5.360625 -7.71125 4.72125 -7.5625 4.0625 C-6.42985685 -0.09052488 -3.88402375 0 0 0 Z " fill="#3569FC" transform="translate(95,288)"/>
<path d="M0 0 C0.33 0 0.66 0 1 0 C1.125 7.625 1.125 7.625 0 11 C0.38932856 13.14255793 0.38932856 13.14255793 1 15 C0.01 15 -0.98 15 -2 15 C-2.33 15.66 -2.66 16.32 -3 17 C-5.5 18.5 -5.5 18.5 -8 20 C-8.33 20.66 -8.66 21.32 -9 22 C-9.66 22 -10.32 22 -11 22 C-11.33 22.66 -11.66 23.32 -12 24 C-12 23.01 -12 22.02 -12 21 C-11.34 21 -10.68 21 -10 21 C-9.731875 20.42765625 -9.46375 19.8553125 -9.1875 19.265625 C-7.96116434 16.92590564 -6.54168715 14.89294514 -5 12.75 C-2.13374917 8.53451402 -0.90781132 4.99296224 0 0 Z " fill="#7B51FA" transform="translate(231,103)"/>
<path d="M0 0 C23.45229427 1.26550842 23.45229427 1.26550842 30 3 C29.67 3.33 29.34 3.66 29 4 C30.32 4.66 31.64 5.32 33 6 C30.36 6.33 27.72 6.66 25 7 C25 6.34 25 5.68 25 5 C19.51466007 3.74271113 13.92413651 3.34404068 8.33007812 2.83789062 C7.54697266 2.75861328 6.76386719 2.67933594 5.95703125 2.59765625 C4.88932495 2.49723022 4.88932495 2.49723022 3.80004883 2.39477539 C2 2 2 2 0 0 Z " fill="#984EFA" transform="translate(188,14)"/>
<path d="M0 0 C7.91082675 3.83555236 12.38480485 11.11767952 16.25 18.703125 C17.09121531 21.27934687 16.92075222 22.4909502 16 25 C15.505 22.525 15.505 22.525 15 20 C14.34 20 13.68 20 13 20 C12.6596875 19.20335937 12.319375 18.40671875 11.96875 17.5859375 C8.73052834 10.50663377 5.79566469 5.93251662 -1 2 C-0.67 1.34 -0.34 0.68 0 0 Z " fill="#4835CB" transform="translate(276,160)"/>
<path d="M0 0 C0.66 0 1.32 0 2 0 C2 0.99 2 1.98 2 3 C3.65 2.34 5.3 1.68 7 1 C5.40956621 6.08938811 2.2553049 9.87456643 -1 14 C-2.13732426 10.59598052 -1.83989957 8.22543336 -1.0625 4.75 C-0.86785156 3.85796875 -0.67320312 2.9659375 -0.47265625 2.046875 C-0.31667969 1.37140625 -0.16070312 0.6959375 0 0 Z " fill="#4E5EFA" transform="translate(274,238)"/>
<path d="M0 0 C0.99 0.495 0.99 0.495 2 1 C1.99476318 1.91289795 1.98952637 2.8257959 1.98413086 3.76635742 C1.96704369 7.16756833 1.9545278 10.56873331 1.94506836 13.9699707 C1.94005331 15.43937909 1.93323967 16.90878252 1.92456055 18.37817383 C1.91237072 20.49561795 1.90674331 22.61299583 1.90234375 24.73046875 C1.89710693 26.00301514 1.89187012 27.27556152 1.88647461 28.58666992 C1.89214128 31.92732898 1.89214128 31.92732898 2.63110352 34.8293457 C2.81370728 35.90381958 2.81370728 35.90381958 3 37 C2.34 37.66 1.68 38.32 1 39 C0 38 0 38 -0.11352539 34.39819336 C-0.11336625 32.79540144 -0.10767063 31.1926044 -0.09765625 29.58984375 C-0.0962413 28.74780899 -0.09482635 27.90577423 -0.09336853 27.03822327 C-0.08775263 24.33794665 -0.07519748 21.63775172 -0.0625 18.9375 C-0.05748705 17.11132932 -0.05292379 15.28515734 -0.04882812 13.45898438 C-0.03777804 8.97262458 -0.02050279 4.48632616 0 0 Z " fill="#2C5FF9" transform="translate(50,260)"/>
<path d="M0 0 C2 2 2 2 2.0625 5.4375 C2.041875 6.613125 2.02125 7.78875 2 9 C2.6737595 11.99647134 2.6737595 11.99647134 4.5625 13.125 C8.01657007 14.36492259 11.34914566 14.63491457 15 15 C15 15.33 15 15.66 15 16 C11.58396711 16.87978312 8.52355818 17.36256903 5 17 C1.7036302 14.90697627 -0.29056142 12.50055681 -2 9 C-2.32490206 5.88946222 -1.8660277 4.08522367 -1 1 C-0.67 0.67 -0.34 0.34 0 0 Z " fill="#5B3CDF" transform="translate(111,119)"/>
<path d="M0 0 C-3.31909349 4.39291786 -5.79887886 6.8227865 -11 9 C-11.33 7.35 -11.66 5.7 -12 4 C-10.68 4.33 -9.36 4.66 -8 5 C-7.67 3.35 -7.34 1.7 -7 0 C-3.98968256 -0.93423645 -3.13349732 -1.04449911 0 0 Z " fill="#4660FC" transform="translate(268,256)"/>
<path d="M0 0 C3.55517448 1.92171594 5.88382033 3.53771177 8 7 C8.7595783 11.24730866 9.20451083 16.0426699 6.875 19.828125 C5.5 21.1875 5.5 21.1875 3 23 C3.22816406 22.43152344 3.45632812 21.86304688 3.69140625 21.27734375 C5.58893043 16.18040661 6.68896792 12.38358525 5 7 C2.52338502 4.75149517 2.52338502 4.75149517 0 3 C0 2.01 0 1.02 0 0 Z " fill="#4638C8" transform="translate(217,159)"/>
<path d="M0 0 C2.67901932 2.31881505 3.66204403 4.31814468 4.6875 7.6875 C4.93886719 8.49574219 5.19023437 9.30398437 5.44921875 10.13671875 C5.63097656 10.75160156 5.81273437 11.36648437 6 12 C4.68 12 3.36 12 2 12 C1.566875 11.1028125 1.566875 11.1028125 1.125 10.1875 C-0.04742026 7.80672208 -0.04742026 7.80672208 -2 5 C-1.48275862 1.48275862 -1.48275862 1.48275862 0 0 Z " fill="#894FFA" transform="translate(282,68)"/>
<path d="M0 0 C2.475 0.99 2.475 0.99 5 2 C4.01 3.485 4.01 3.485 3 5 C2.96774596 6.9997505 2.94003562 9.00039815 2.98046875 11 C3.00509043 13.52125992 2.8423057 15.61346719 2 18 C0.125 19.375 0.125 19.375 -2 20 C-2.99 19.67 -3.98 19.34 -5 19 C-4.175 18.278125 -3.35 17.55625 -2.5 16.8125 C1.56948789 12.07813804 0.39116521 5.85878565 0 0 Z " fill="#5559FC" transform="translate(194,212)"/>
<path d="M0 0 C2.475 0.99 2.475 0.99 5 2 C4.67 4.64 4.34 7.28 4 10 C2.35 9.67 0.7 9.34 -1 9 C-0.67 6.03 -0.34 3.06 0 0 Z " fill="#814FF9" transform="translate(289,90)"/>
<path d="M0 0 C2.97 0.495 2.97 0.495 6 1 C6 2.32 6 3.64 6 5 C6.66 5.33 7.32 5.66 8 6 C7.34 6 6.68 6 6 6 C6 6.66 6 7.32 6 8 C6.66 8 7.32 8 8 8 C7.67 9.32 7.34 10.64 7 12 C4.47384158 8.87237529 2.73201988 5.62149612 1 2 C0.67 1.34 0.34 0.68 0 0 Z " fill="#874FFB" transform="translate(224,80)"/>
<path d="M0 0 C5.15464734 0.48324819 8.81550319 3.18610761 13 6 C9.61033479 6.95199108 7.41278228 7.07772072 4 6 C2.66666667 4 1.33333333 2 0 0 Z " fill="#944DFA" transform="translate(234,25)"/>
<path d="M0 0 C0 0.66 0 1.32 0 2 C-8.261959 6.59225513 -8.261959 6.59225513 -13 6 C-13 5.34 -13 4.68 -13 4 C-11.39850114 3.32694982 -9.79368971 2.66177773 -8.1875 2 C-7.29417969 1.62875 -6.40085938 1.2575 -5.48046875 0.875 C-3 0 -3 0 0 0 Z " fill="#284AE0" transform="translate(248,272)"/>
<path d="M0 0 C7.8187104 0.46569122 15.36399015 1.22458462 23 3 C20 5 20 5 16 5 C16 4.34 16 3.68 16 3 C10.72 2.34 5.44 1.68 0 1 C0 0.67 0 0.34 0 0 Z " fill="#7B46D0" transform="translate(194,12)"/>
<path d="M0 0 C0.99 0.33 1.98 0.66 3 1 C1.77974937 4.6607519 0.873509 4.92339441 -2.4375 6.6875 C-3.64212891 7.34298828 -3.64212891 7.34298828 -4.87109375 8.01171875 C-7 9 -7 9 -9 9 C-9 8.34 -9 7.68 -9 7 C-8.030625 6.54625 -7.06125 6.0925 -6.0625 5.625 C-2.92920418 4.34213779 -2.92920418 4.34213779 -2 2 C-1.34 2 -0.68 2 0 2 C0 1.34 0 0.68 0 0 Z " fill="#4064FC" transform="translate(252,264)"/>
<path d="M0 0 C1.49080078 0.43119141 1.49080078 0.43119141 3.01171875 0.87109375 C4.15060547 1.21333984 4.15060547 1.21333984 5.3125 1.5625 C4.9825 2.2225 4.6525 2.8825 4.3125 3.5625 C2.51926747 3.28062064 0.72792874 2.9866719 -1.0625 2.6875 C-2.06023437 2.52507813 -3.05796875 2.36265625 -4.0859375 2.1953125 C-6.6875 1.5625 -6.6875 1.5625 -8.6875 -0.4375 C-5.05554504 -1.64815165 -3.62218371 -1.06534815 0 0 Z " fill="#7532D3" transform="translate(223.6875,17.4375)"/>
<path d="M0 0 C2.4375 0.375 2.4375 0.375 5 1 C5.99 1 6.98 1 8 1 C5.77174356 3.22825644 4.34238372 3.69239369 1.375 4.625 C0.55773437 4.88539063 -0.25953125 5.14578125 -1.1015625 5.4140625 C-1.72804687 5.60742188 -2.35453125 5.80078125 -3 6 C-2.42655063 3.13275314 -2.1385485 2.1385485 0 0 Z " fill="#3E66FC" transform="translate(235,272)"/>
<path d="M0 0 C4.29 0.33 8.58 0.66 13 1 C12.67 1.66 12.34 2.32 12 3 C11.34 3 10.68 3 10 3 C9.67 3.99 9.34 4.98 9 6 C6.03 4.35 3.06 2.7 0 1 C0 0.67 0 0.34 0 0 Z " fill="#8B4EFC" transform="translate(206,65)"/>
<path d="M0 0 C2.0625 1.6875 2.0625 1.6875 4 4 C3.75 6.75 3.75 6.75 3 9 C2.67 8.34 2.34 7.68 2 7 C1.01 7 0.02 7 -1 7 C-1.625 5.1875 -1.625 5.1875 -2 3 C-1.34 2.01 -0.68 1.02 0 0 Z " fill="#8E4FF9" transform="translate(275,57)"/>
<path d="M0 0 C0.33 0.66 0.66 1.32 1 2 C0.00390625 4.3828125 0.00390625 4.3828125 -1.4375 7.125 C-1.91058594 8.03507813 -2.38367188 8.94515625 -2.87109375 9.8828125 C-3.24363281 10.58148438 -3.61617188 11.28015625 -4 12 C-4.66 12 -5.32 12 -6 12 C-5.21910455 8.09552275 -3.69382187 4.59090237 -2 1 C-1.34 0.67 -0.68 0.34 0 0 Z " fill="#393FCF" transform="translate(289,227)"/>
<path d="M0 0 C0 0.66 0 1.32 0 2 C0.66 2.66 1.32 3.32 2 4 C0.39620659 4.05416188 -1.20811406 4.09286638 -2.8125 4.125 C-3.70582031 4.14820313 -4.59914062 4.17140625 -5.51953125 4.1953125 C-8 4 -8 4 -11 2 C-7.12315913 0.80712589 -4.08378077 0 0 0 Z " fill="#3661EE" transform="translate(216,280)"/>
<path d="M0 0 C1.485 0.99 1.485 0.99 3 2 C3.29296875 4.1640625 3.29296875 4.1640625 3.1875 6.625 C3.16042969 7.44226563 3.13335937 8.25953125 3.10546875 9.1015625 C3.07066406 9.72804687 3.03585938 10.35453125 3 11 C2.34 11 1.68 11 1 11 C-0.20272819 8.59454362 -0.10071472 7.05003047 -0.0625 4.375 C-0.05347656 3.55773437 -0.04445312 2.74046875 -0.03515625 1.8984375 C-0.02355469 1.27195313 -0.01195312 0.64546875 0 0 Z " fill="#4042DF" transform="translate(48,197)"/>
<path d="M0 0 C5.94 0 11.88 0 18 0 C17.67 0.99 17.34 1.98 17 3 C16.01 3 15.02 3 14 3 C14 2.34 14 1.68 14 1 C9.38 1 4.76 1 0 1 C0 0.67 0 0.34 0 0 Z " fill="#6F40E8" transform="translate(176,84)"/>
<path d="M0 0 C1.65 0 3.3 0 5 0 C5 0.66 5 1.32 5 2 C6.98 1.67 8.96 1.34 11 1 C10.67 1.99 10.34 2.98 10 4 C6.7 3.67 3.4 3.34 0 3 C0 2.01 0 1.02 0 0 Z " fill="#904DFC" transform="translate(187,58)"/>
<path d="M0 0 C0.66 0.33 1.32 0.66 2 1 C1.67 2.65 1.34 4.3 1 6 C2.32 6.33 3.64 6.66 5 7 C5 7.66 5 8.32 5 9 C3.35 8.67 1.7 8.34 0 8 C-1.125 2.25 -1.125 2.25 0 0 Z " fill="#553EDF" transform="translate(271,152)"/>
<path d="M0 0 C2.47524576 2.90572328 3.69670231 5.15822926 4 9 C3.34 9.66 2.68 10.32 2 11 C1.01 7.7 0.02 4.4 -1 1 C-0.67 0.67 -0.34 0.34 0 0 Z " fill="#5D30CA" transform="translate(288,75)"/>
<path d="M0 0 C1.32 0 2.64 0 4 0 C3.40072174 3.35595828 2.15377564 5.37801226 0 8 C-0.66 7.67 -1.32 7.34 -2 7 C-1.34 4.69 -0.68 2.38 0 0 Z " fill="#884CF8" transform="translate(108,64)"/>
<path d="M0 0 C0 0.66 0 1.32 0 2 C-7.28571429 5.42857143 -7.28571429 5.42857143 -12 5 C-11.443125 4.731875 -10.88625 4.46375 -10.3125 4.1875 C-7.9160243 3.00101623 -7.9160243 3.00101623 -5.4375 1.375 C-3 0 -3 0 0 0 Z " fill="#2C56D5" transform="translate(74,307)"/>
<path d="M0 0 C3.95820859 0.56545837 6.6659053 1.80902348 10 4 C6.59068103 5.13643966 5.99664544 4.86747764 2.8125 3.5625 C2.09707031 3.27503906 1.38164062 2.98757812 0.64453125 2.69140625 C0.10183594 2.46324219 -0.44085938 2.23507813 -1 2 C-0.67 1.34 -0.34 0.68 0 0 Z " fill="#5B2DC4" transform="translate(194,85)"/>
<path d="M0 0 C0.6875 1.8125 0.6875 1.8125 1 4 C-0.125 5.8125 -0.125 5.8125 -2 7 C-4.6875 6.6875 -4.6875 6.6875 -7 6 C-6.01 5.34 -5.02 4.68 -4 4 C-2.64748503 2.68612831 -1.31054623 1.35573748 0 0 Z " fill="#3C44CD" transform="translate(192,224)"/>
<path d="M0 0 C-1.12073862 0.83905565 -2.24674547 1.67107831 -3.375 2.5 C-4.00148438 2.9640625 -4.62796875 3.428125 -5.2734375 3.90625 C-7 5 -7 5 -9 5 C-8 2 -8 2 -5.625 0.25 C-3 -1 -3 -1 0 0 Z " fill="#3436D5" transform="translate(122,209)"/>
<path d="M0 0 C0.33 0.99 0.66 1.98 1 3 C-0.40445835 5.2636564 -2.1967913 7.0208685 -4 9 C-4.66 8.34 -5.32 7.68 -6 7 C-4.02 4.69 -2.04 2.38 0 0 Z " fill="#4428D1" transform="translate(287,138)"/>
<path d="M0 0 C0.763125 0.639375 1.52625 1.27875 2.3125 1.9375 C4.88246713 4.14232781 4.88246713 4.14232781 8 5 C8 5.66 8 6.32 8 7 C5.125 6.6875 5.125 6.6875 2 6 C0 3 0 3 0 0 Z " fill="#6135D2" transform="translate(112,78)"/>
<path d="M0 0 C3.16717283 1.58358642 4.73268318 2.45263699 6.3125 5.6875 C6.539375 6.450625 6.76625 7.21375 7 8 C5.82512964 7.24172908 4.66027408 6.46792245 3.5 5.6875 C2.52546875 5.04361328 2.52546875 5.04361328 1.53125 4.38671875 C1.0259375 3.92910156 0.520625 3.47148437 0 3 C0 2.01 0 1.02 0 0 Z " fill="#4C35D5" transform="translate(217,159)"/>
<path d="M0 0 C0 0.99 0 1.98 0 3 C-4.455 3.495 -4.455 3.495 -9 4 C-6.10130984 1.70103884 -3.84906588 0 0 0 Z " fill="#643CDC" transform="translate(198,108)"/>
<path d="M0 0 C0.66 0.33 1.32 0.66 2 1 C1.67 2.98 1.34 4.96 1 7 C-0.32 7.33 -1.64 7.66 -3 8 C-2.45276317 4.62537285 -1.9451 2.91765 0 0 Z " fill="#964BFC" transform="translate(54,17)"/>
<path d="M0 0 C2.97 0 5.94 0 9 0 C9 0.66 9 1.32 9 2 C4.545 2.495 4.545 2.495 0 3 C0 2.01 0 1.02 0 0 Z " fill="#9A4BFA" transform="translate(59,14)"/>
<path d="M0 0 C0.99 0.33 1.98 0.66 3 1 C-0.465 3.97 -0.465 3.97 -4 7 C-3.04065919 3.16263678 -2.76390737 2.40339772 0 0 Z " fill="#3C4DD3" transform="translate(271,253)"/>
<path d="M0 0 C2 0 2 0 4.625 2.375 C7 5 7 5 7 7 C4.08482708 5.92598892 2.22189824 5.22189824 0 3 C0 2.01 0 1.02 0 0 Z " fill="#4337CC" transform="translate(111,177)"/>
<path d="M0 0 C1.32 1.32 2.64 2.64 4 4 C3.01 4.495 3.01 4.495 2 5 C1.67 5.66 1.34 6.32 1 7 C0.34 6.34 -0.32 5.68 -1 5 C-0.625 2.375 -0.625 2.375 0 0 Z " fill="#6451F6" transform="translate(282,167)"/>
<path d="M0 0 C2.64 0 5.28 0 8 0 C7.01 1.485 7.01 1.485 6 3 C3.5625 2.625 3.5625 2.625 1 2 C0.67 1.34 0.34 0.68 0 0 Z " fill="#8D4EF6" transform="translate(118,58)"/>
<path d="M0 0 C4 1 4 1 5.8125 2.875 C6.204375 3.57625 6.59625 4.2775 7 5 C6.67 5.99 6.34 6.98 6 8 C4.02 5.36 2.04 2.72 0 0 Z " fill="#5F34C3" transform="translate(217,75)"/>
<path d="M0 0 C1.32 0.33 2.64 0.66 4 1 C3.34 1 2.68 1 2 1 C1.71125 1.598125 1.4225 2.19625 1.125 2.8125 C0 5 0 5 -2 8 C-2.20086443 4.28400809 -2.1519437 3.22791555 0 0 Z " fill="#642FD0" transform="translate(52,16)"/>
</svg>
